<svg width="116" height="36" viewBox="0 0 116 36" fill="none" xmlns="http://www.w3.org/2000/svg">
<path d="M31.5 0.5H3.5C1.567 0.5 0 2.067 0 4V32C0 33.933 1.567 35.5 3.5 35.5H31.5C33.433 35.5 35 33.933 35 32V4C35 2.067 33.433 0.5 31.5 0.5Z" fill="#0042DA"/>
<path d="M28.4375 16.1831V14.1937C28.4375 13.7105 28.0457 13.3187 27.5625 13.3187H12.4855C12.0023 13.3187 11.6105 13.7105 11.6105 14.1937V16.1831C11.6105 16.6663 12.0023 17.0581 12.4855 17.0581H27.5625C28.0457 17.0581 28.4375 16.6663 28.4375 16.1831Z" fill="#FF8E20"/>
<path fill-rule="evenodd" clip-rule="evenodd" d="M8.43216 17.058C9.46474 17.058 10.3018 16.221 10.3018 15.1884C10.3018 14.1558 9.46474 13.3187 8.43216 13.3187C7.39957 13.3187 6.5625 14.1558 6.5625 15.1884C6.5625 16.221 7.39957 17.058 8.43216 17.058Z" fill="#FF8E20"/>
<path d="M6.5625 19.8028V21.7921C6.5625 22.2754 6.95425 22.6671 7.4375 22.6671H22.5145C22.9977 22.6671 23.3895 22.2754 23.3895 21.7921V19.8028C23.3895 19.3195 22.9977 18.9278 22.5145 18.9278H7.4375C6.95425 18.9278 6.5625 19.3195 6.5625 19.8028Z" fill="white"/>
<path fill-rule="evenodd" clip-rule="evenodd" d="M26.5669 18.9277C25.5343 18.9277 24.6973 19.7648 24.6973 20.7974C24.6973 21.83 25.5343 22.6671 26.5669 22.6671C27.5995 22.6671 28.4366 21.83 28.4366 20.7974C28.4366 19.7648 27.5995 18.9277 26.5669 18.9277Z" fill="white"/>
<path d="M44.224 24V11.292H47.05V24H44.224ZM46.384 19.014V16.584H52.738V19.014H46.384ZM46.384 13.722V11.292H53.026V13.722H46.384ZM58.5199 24.198C57.6199 24.198 56.8039 24 56.0719 23.604C55.3519 23.196 54.7819 22.644 54.3619 21.948C53.9419 21.252 53.7319 20.472 53.7319 19.608C53.7319 18.744 53.9419 17.97 54.3619 17.286C54.7819 16.602 55.3519 16.062 56.0719 15.666C56.7919 15.258 57.6079 15.054 58.5199 15.054C59.4319 15.054 60.2479 15.252 60.9679 15.648C61.6879 16.044 62.2579 16.59 62.6779 17.286C63.0979 17.97 63.3079 18.744 63.3079 19.608C63.3079 20.472 63.0979 21.252 62.6779 21.948C62.2579 22.644 61.6879 23.196 60.9679 23.604C60.2479 24 59.4319 24.198 58.5199 24.198ZM58.5199 21.696C58.9159 21.696 59.2639 21.612 59.5639 21.444C59.8639 21.264 60.0919 21.018 60.2479 20.706C60.4159 20.382 60.4999 20.016 60.4999 19.608C60.4999 19.2 60.4159 18.846 60.2479 18.546C60.0799 18.234 59.8459 17.994 59.5459 17.826C59.2579 17.646 58.9159 17.556 58.5199 17.556C58.1359 17.556 57.7939 17.646 57.4939 17.826C57.1939 17.994 56.9599 18.234 56.7919 18.546C56.6239 18.858 56.5399 19.218 56.5399 19.626C56.5399 20.022 56.6239 20.382 56.7919 20.706C56.9599 21.018 57.1939 21.264 57.4939 21.444C57.7939 21.612 58.1359 21.696 58.5199 21.696ZM64.679 24V15.252H67.433V24H64.679ZM67.433 19.194L66.281 18.294C66.509 17.274 66.893 16.482 67.433 15.918C67.973 15.354 68.723 15.072 69.683 15.072C70.103 15.072 70.469 15.138 70.781 15.27C71.105 15.39 71.387 15.582 71.627 15.846L69.989 17.916C69.869 17.784 69.719 17.682 69.539 17.61C69.359 17.538 69.155 17.502 68.927 17.502C68.471 17.502 68.105 17.646 67.829 17.934C67.565 18.21 67.433 18.63 67.433 19.194ZM72.3079 24V15.252H75.0619V24H72.3079ZM77.9059 24V18.888C77.9059 18.444 77.7679 18.102 77.4919 17.862C77.2279 17.61 76.8979 17.484 76.5019 17.484C76.2259 17.484 75.9799 17.544 75.7639 17.664C75.5479 17.772 75.3739 17.928 75.2419 18.132C75.1219 18.336 75.0619 18.588 75.0619 18.888L73.9999 18.42C73.9999 17.724 74.1499 17.13 74.4499 16.638C74.7499 16.134 75.1579 15.75 75.6739 15.486C76.1899 15.21 76.7719 15.072 77.4199 15.072C78.0319 15.072 78.5779 15.21 79.0579 15.486C79.5499 15.762 79.9399 16.146 80.2279 16.638C80.5159 17.13 80.6599 17.718 80.6599 18.402V24H77.9059ZM83.5039 24V18.888C83.5039 18.444 83.3659 18.102 83.0899 17.862C82.8259 17.61 82.4959 17.484 82.0999 17.484C81.8239 17.484 81.5779 17.544 81.3619 17.664C81.1459 17.772 80.9719 17.928 80.8399 18.132C80.7199 18.336 80.6599 18.588 80.6599 18.888L79.0759 18.672C79.0999 17.928 79.2739 17.292 79.5979 16.764C79.9339 16.224 80.3719 15.81 80.9119 15.522C81.4639 15.222 82.0819 15.072 82.7659 15.072C83.4379 15.072 84.0319 15.216 84.5479 15.504C85.0759 15.78 85.4899 16.182 85.7899 16.71C86.1019 17.226 86.2579 17.85 86.2579 18.582V24H83.5039ZM90.4348 24V21.804H93.4228C93.9748 21.804 94.4068 21.642 94.7188 21.318C95.0308 20.994 95.1868 20.598 95.1868 20.13C95.1868 19.806 95.1148 19.518 94.9708 19.266C94.8268 19.014 94.6228 18.816 94.3588 18.672C94.1068 18.528 93.7948 18.456 93.4228 18.456H90.4348V16.314H93.1888C93.6568 16.314 94.0348 16.2 94.3228 15.972C94.6108 15.732 94.7548 15.372 94.7548 14.892C94.7548 14.424 94.6108 14.076 94.3228 13.848C94.0348 13.608 93.6568 13.488 93.1888 13.488H90.4348V11.292H93.7288C94.5448 11.292 95.2348 11.442 95.7988 11.742C96.3748 12.042 96.8128 12.444 97.1128 12.948C97.4128 13.452 97.5628 14.01 97.5628 14.622C97.5628 15.402 97.3108 16.062 96.8068 16.602C96.3028 17.142 95.5588 17.514 94.5748 17.718L94.6468 16.764C95.7148 16.968 96.5368 17.382 97.1128 18.006C97.7008 18.63 97.9948 19.398 97.9948 20.31C97.9948 21.006 97.8208 21.636 97.4728 22.2C97.1368 22.752 96.6448 23.19 95.9968 23.514C95.3608 23.838 94.5928 24 93.6928 24H90.4348ZM88.2748 24V11.292H91.0648V24H88.2748ZM103.766 24.198C102.866 24.198 102.05 24 101.318 23.604C100.598 23.196 100.028 22.644 99.608 21.948C99.188 21.252 98.978 20.472 98.978 19.608C98.978 18.744 99.188 17.97 99.608 17.286C100.028 16.602 100.598 16.062 101.318 15.666C102.038 15.258 102.854 15.054 103.766 15.054C104.678 15.054 105.494 15.252 106.214 15.648C106.934 16.044 107.504 16.59 107.924 17.286C108.344 17.97 108.554 18.744 108.554 19.608C108.554 20.472 108.344 21.252 107.924 21.948C107.504 22.644 106.934 23.196 106.214 23.604C105.494 24 104.678 24.198 103.766 24.198ZM103.766 21.696C104.162 21.696 104.51 21.612 104.81 21.444C105.11 21.264 105.338 21.018 105.494 20.706C105.662 20.382 105.746 20.016 105.746 19.608C105.746 19.2 105.662 18.846 105.494 18.546C105.326 18.234 105.092 17.994 104.792 17.826C104.504 17.646 104.162 17.556 103.766 17.556C103.382 17.556 103.04 17.646 102.74 17.826C102.44 17.994 102.206 18.234 102.038 18.546C101.87 18.858 101.786 19.218 101.786 19.626C101.786 20.022 101.87 20.382 102.038 20.706C102.206 21.018 102.44 21.264 102.74 21.444C103.04 21.612 103.382 21.696 103.766 21.696ZM110.991 24V11.634H113.745V24H110.991ZM109.011 17.592V15.252H115.725V17.592H109.011Z" fill="white"/>
<a href="https://www.figma.com/design/WVeL1QPpyuWTynqPRb9Ge7/Form-Builder-Cuvette-Task?node-id=1-2">
<rect fill="black" fill-opacity="0" y="-0.539999" width="10.62" height="22.68"/>
</a>
</svg>
